# xmcd
#
# Track frame offsets:
#	150
#	16705
#	33847
#	51082
#	66937
#	86002
#	101007
#	118385
#	135935
#	149297
#	166732
#	182817
#	200910
#	214790
#	230287
#	247315
#	265572
#	289867
#	305122
#	316335
#
# Disc length: 4410 seconds
#
# Revision: 0
# Processed by: cddbd v1.5.1PL0 Copyright (c) Steve Scherf et al.
# Submitted via: dBpowerAMP V4.0
#
DISCID=26113814
DTITLE=Los Terricolas - 20 Exitos
DYEAR=2000
DGENRE=Latin
TTITLE0=Viviras
TTITLE1=Dos Cosas
TTITLE2=hoy Te Confiezo
TTITLE3=Lloraras
TTITLE4=Te Juro Que Te Amo
TTITLE5=Una Carta
TTITLE6=Luto En El Alma
TTITLE7=Deja De Llorar Chiquilla
TTITLE8=El Plebeyo
TTITLE9=Hasta Ayer
TTITLE10=Donde Vamos
TTITLE11=Nostalgia
TTITLE12=Dos almas
TTITLE13=Poquito a Poco
TTITLE14=Hay Amor hay Amor
TTITLE15=Nuestra Historia
TTITLE16=Cuaesta Abajo
TTITLE17=vamos A Platicar
TTITLE18=Amor traicionero
TTITLE19=Cenizas
EXTD=Upload By:\n(¯`·._.·[Herseleid]·._.·´¯)
EXTT0=
EXTT1=
EXTT2=
EXTT3=
EXTT4=
EXTT5=
EXTT6=
EXTT7=
EXTT8=
EXTT9=
EXTT10=
EXTT11=
EXTT12=
EXTT13=
EXTT14=
EXTT15=
EXTT16=
EXTT17=
EXTT18=
EXTT19=
PLAYORDER=
